<svg width="546" height="200" viewBox="0 0 546 200" fill="none" xmlns="http://www.w3.org/2000/svg">
<path d="M399.907 123.355C397.224 117.863 395.601 96.8181 396.718 84.6389C398.27 67.7143 417.457 70.7712 430.804 72.1861C435.391 72.6724 439.052 68.9631 442.068 74.6966C445.084 80.43 445.142 97.6972 445.341 108.273C445.541 118.848 445.706 121.599 443.718 124.403C440.789 128.536 427.613 127.655 417.609 127.079C408.622 126.562 402.591 128.847 399.907 123.355Z" fill="#FDFCFD"/>
<path d="M445.214 103.294C445.271 105.117 445.313 106.801 445.34 108.273C445.46 114.633 445.566 118.163 445.2 120.577C445.211 118.549 445.152 115.987 445.089 112.643C445.037 109.871 445.118 106.647 445.214 103.294ZM430.803 72.1858C435.39 72.6721 438.273 64.746 441.288 70.4795C442.159 72.1352 442.847 75.1044 443.391 78.7448C440.206 73.6157 432.342 76.9082 418.54 77.728C404.37 78.5696 399.135 78.0366 398.123 89.0713C397.611 94.6573 397.327 102.095 397.428 109.041C396.449 98.1582 396.129 84.1529 396.821 76.6156C398.373 59.691 417.456 70.7708 430.803 72.1858Z" fill="#EAEAEF"/>
<path d="M399.907 123.354C397.223 117.863 395.602 96.8183 396.718 84.6391C398.488 107.498 394.273 125.212 411.249 127.057C413.168 126.999 415.29 126.946 417.608 127.079C415.212 127.271 413.104 127.258 411.249 127.057C405.732 127.223 401.898 127.429 399.907 123.354Z" fill="#EAEAEF"/>
</svg>
