<svg width="171" height="93" viewBox="0 0 171 93" fill="none" xmlns="http://www.w3.org/2000/svg">
<g filter="url(#filter0_i_28_329)">
<path d="M142.26 29.9689C141.412 22.6421 165.221 15.3113 166.069 22.6381C166.777 28.757 172.026 62.8181 166.29 75.5269C165.157 78.0358 160.598 78.3677 158.696 78.5791C148.144 79.7522 143.107 37.2957 142.26 29.9689Z" fill="#FEFCF5"/>
</g>
<g filter="url(#filter1_i_28_329)">
<path d="M120.985 36.5004C121.484 42.1669 116.992 71.7584 110.504 73.6473C104.015 75.5361 96.5292 51.611 96.03 45.9445C95.5308 40.2781 120.486 30.834 120.985 36.5004Z" fill="#FEFCF5"/>
</g>
<g filter="url(#filter2_i_28_329)">
<path d="M119.389 35.2136C118.951 27.8502 143.784 21.9022 144.223 29.2657C144.589 35.4152 147.971 69.7221 141.345 82.0796C140.037 84.5191 135.344 84.588 133.383 84.6896C122.499 85.2532 119.828 42.5771 119.389 35.2136Z" fill="#FEFCF5"/>
</g>
<g filter="url(#filter3_i_28_329)">
<path d="M97.8492 44.1945C98.7048 48.6407 96.0837 72.4237 89.7232 74.4348C83.3628 76.4459 74.3789 58.101 73.5232 53.6549C72.6676 49.2087 96.9936 39.7484 97.8492 44.1945Z" fill="#FEFCF5"/>
</g>
<g filter="url(#filter4_i_28_329)">
<path d="M76.0092 54.7702C76.7695 58.019 73.6507 75.5492 67.2584 77.1612C60.8662 78.7731 52.2847 65.4837 51.5244 62.2349C50.7641 58.9861 75.2489 51.5214 76.0092 54.7702Z" fill="#FEFCF5"/>
</g>
<g filter="url(#filter5_i_28_329)">
<path d="M53.9822 63.6556C54.754 66.5242 51.7035 82.1699 45.3233 83.7496C38.9431 85.3293 30.32 73.7211 29.5482 70.8525C28.7765 67.9839 53.2105 60.7869 53.9822 63.6556Z" fill="#FEFCF5"/>
</g>
<path d="M168.431 12.4999C159.91 -3.47763 110.969 -2.121 76.6495 5.37909C68.8933 7.0741 62.9446 12.955 59.7957 20.243C40.4762 64.9578 14.0525 78.7898 4.30883 82.5225C2.09513 83.3706 0.403884 85.3882 0.2647 87.7547C0.112216 90.3473 1.8702 92.7256 4.45989 92.9216C28.7593 94.7607 44.5626 65.8433 96.9312 46.4999C137.675 29.697 178.031 30.4999 168.431 12.4999Z" fill="#FDA82A"/>
<defs>
<filter id="filter0_i_28_329" x="142.237" y="19.604" width="26.7045" height="58.999" filterUnits="userSpaceOnUse" color-interpolation-filters="sRGB">
<feFlood flood-opacity="0" result="BackgroundImageFix"/>
<feBlend mode="normal" in="SourceGraphic" in2="BackgroundImageFix" result="shape"/>
<feColorMatrix in="SourceAlpha" type="matrix" values="0 0 0 0 0 0 0 0 0 0 0 0 0 0 0 0 0 0 127 0" result="hardAlpha"/>
<feOffset dx="2" dy="-2"/>
<feComposite in2="hardAlpha" operator="arithmetic" k2="-1" k3="1"/>
<feColorMatrix type="matrix" values="0 0 0 0 0 0 0 0 0 0 0 0 0 0 0 0 0 0 0.1 0"/>
<feBlend mode="normal" in2="shape" result="effect1_innerShadow_28_329"/>
</filter>
<filter id="filter1_i_28_329" x="96.0226" y="34.7532" width="25" height="39" filterUnits="userSpaceOnUse" color-interpolation-filters="sRGB">
<feFlood flood-opacity="0" result="BackgroundImageFix"/>
<feBlend mode="normal" in="SourceGraphic" in2="BackgroundImageFix" result="shape"/>
<feColorMatrix in="SourceAlpha" type="matrix" values="0 0 0 0 0 0 0 0 0 0 0 0 0 0 0 0 0 0 127 0" result="hardAlpha"/>
<feOffset dx="2" dy="-2"/>
<feComposite in2="hardAlpha" operator="arithmetic" k2="-1" k3="1"/>
<feColorMatrix type="matrix" values="0 0 0 0 0 0 0 0 0 0 0 0 0 0 0 0 0 0 0.1 0"/>
<feBlend mode="normal" in2="shape" result="effect1_innerShadow_28_329"/>
</filter>
<filter id="filter2_i_28_329" x="119.384" y="25.896" width="26.0255" height="58.7991" filterUnits="userSpaceOnUse" color-interpolation-filters="sRGB">
<feFlood flood-opacity="0" result="BackgroundImageFix"/>
<feBlend mode="normal" in="SourceGraphic" in2="BackgroundImageFix" result="shape"/>
<feColorMatrix in="SourceAlpha" type="matrix" values="0 0 0 0 0 0 0 0 0 0 0 0 0 0 0 0 0 0 127 0" result="hardAlpha"/>
<feOffset dx="2" dy="-2"/>
<feComposite in2="hardAlpha" operator="arithmetic" k2="-1" k3="1"/>
<feColorMatrix type="matrix" values="0 0 0 0 0 0 0 0 0 0 0 0 0 0 0 0 0 0 0.1 0"/>
<feBlend mode="normal" in2="shape" result="effect1_innerShadow_28_329"/>
</filter>
<filter id="filter3_i_28_329" x="73.5012" y="43.0349" width="24.5054" height="31.5532" filterUnits="userSpaceOnUse" color-interpolation-filters="sRGB">
<feFlood flood-opacity="0" result="BackgroundImageFix"/>
<feBlend mode="normal" in="SourceGraphic" in2="BackgroundImageFix" result="shape"/>
<feColorMatrix in="SourceAlpha" type="matrix" values="0 0 0 0 0 0 0 0 0 0 0 0 0 0 0 0 0 0 127 0" result="hardAlpha"/>
<feOffset dx="2" dy="-2"/>
<feComposite in2="hardAlpha" operator="arithmetic" k2="-1" k3="1"/>
<feColorMatrix type="matrix" values="0 0 0 0 0 0 0 0 0 0 0 0 0 0 0 0 0 0 0.1 0"/>
<feBlend mode="normal" in2="shape" result="effect1_innerShadow_28_329"/>
</filter>
<filter id="filter4_i_28_329" x="51.5071" y="53.9688" width="24.6145" height="23.3274" filterUnits="userSpaceOnUse" color-interpolation-filters="sRGB">
<feFlood flood-opacity="0" result="BackgroundImageFix"/>
<feBlend mode="normal" in="SourceGraphic" in2="BackgroundImageFix" result="shape"/>
<feColorMatrix in="SourceAlpha" type="matrix" values="0 0 0 0 0 0 0 0 0 0 0 0 0 0 0 0 0 0 127 0" result="hardAlpha"/>
<feOffset dx="2" dy="-2"/>
<feComposite in2="hardAlpha" operator="arithmetic" k2="-1" k3="1"/>
<feColorMatrix type="matrix" values="0 0 0 0 0 0 0 0 0 0 0 0 0 0 0 0 0 0 0.1 0"/>
<feBlend mode="normal" in2="shape" result="effect1_innerShadow_28_329"/>
</filter>
<filter id="filter5_i_28_329" x="29.5303" y="62.9927" width="24.5693" height="20.9041" filterUnits="userSpaceOnUse" color-interpolation-filters="sRGB">
<feFlood flood-opacity="0" result="BackgroundImageFix"/>
<feBlend mode="normal" in="SourceGraphic" in2="BackgroundImageFix" result="shape"/>
<feColorMatrix in="SourceAlpha" type="matrix" values="0 0 0 0 0 0 0 0 0 0 0 0 0 0 0 0 0 0 127 0" result="hardAlpha"/>
<feOffset dx="2" dy="-2"/>
<feComposite in2="hardAlpha" operator="arithmetic" k2="-1" k3="1"/>
<feColorMatrix type="matrix" values="0 0 0 0 0 0 0 0 0 0 0 0 0 0 0 0 0 0 0.1 0"/>
<feBlend mode="normal" in2="shape" result="effect1_innerShadow_28_329"/>
</filter>
</defs>
</svg>
